<svg width="200" height="106" viewBox="0 0 200 106" fill="none" xmlns="http://www.w3.org/2000/svg">
<path d="M34.6344 0L31.3001 52.3306L0 60.4709L34.6344 0Z" fill="#5B5F97"/>
<path d="M14.653 105.528L19.9814 55.1352L50.6196 47.4282L14.653 105.528Z" fill="#5B5F97"/>
<path d="M35.5749 39.9005V26.8095H44.2425V29.0915H38.3426V32.2108H43.6672V34.4928H38.3426V39.9005H35.5749ZM46.1042 39.9005V26.8095H48.8719V37.6185H54.4841V39.9005H46.1042ZM59.0848 26.8095V39.9005H56.317V26.8095H59.0848ZM61.362 39.9005V26.8095H66.5267C67.5196 26.8095 68.3655 26.9992 69.0644 27.3784C69.7632 27.7534 70.2959 28.2755 70.6624 28.9445C71.0331 29.6093 71.2185 30.3763 71.2185 31.2456C71.2185 32.1149 71.031 32.882 70.656 33.5468C70.281 34.2115 69.7377 34.7293 69.026 35.1C68.3186 35.4708 67.4621 35.6561 66.4564 35.6561H63.1645V33.4381H66.009C66.5417 33.4381 66.9806 33.3465 67.3257 33.1632C67.6752 32.9757 67.9351 32.7179 68.1056 32.3898C68.2803 32.0574 68.3676 31.676 68.3676 31.2456C68.3676 30.811 68.2803 30.4317 68.1056 30.1078C67.9351 29.7797 67.6752 29.5262 67.3257 29.3472C66.9763 29.1639 66.5331 29.0723 65.9962 29.0723H64.1297V39.9005H61.362ZM73.0163 39.9005V26.8095H78.181C79.1739 26.8095 80.0198 26.9992 80.7187 27.3784C81.4175 27.7534 81.9502 28.2755 82.3167 28.9445C82.6874 29.6093 82.8728 30.3763 82.8728 31.2456C82.8728 32.1149 82.6853 32.882 82.3103 33.5468C81.9353 34.2115 81.392 34.7293 80.6803 35.1C79.9729 35.4708 79.1164 35.6561 78.1107 35.6561H74.8188V33.4381H77.6633C78.196 33.4381 78.6349 33.3465 78.98 33.1632C79.3295 32.9757 79.5894 32.7179 79.7599 32.3898C79.9346 32.0574 80.0219 31.676 80.0219 31.2456C80.0219 30.811 79.9346 30.4317 79.7599 30.1078C79.5894 29.7797 79.3295 29.5262 78.98 29.3472C78.6306 29.1639 78.1874 29.0723 77.6505 29.0723H75.784V39.9005H73.0163ZM87.4383 26.8095V39.9005H84.6706V26.8095H87.4383ZM100.665 26.8095V39.9005H98.2744L92.5791 31.6611H92.4832V39.9005H89.7155V26.8095H92.1445L97.795 35.0425H97.9101V26.8095H100.665ZM111.632 31.0411C111.543 30.73 111.417 30.4551 111.255 30.2165C111.093 29.9736 110.895 29.7691 110.661 29.6029C110.431 29.4324 110.166 29.3024 109.868 29.213C109.574 29.1235 109.248 29.0787 108.89 29.0787C108.221 29.0787 107.633 29.2449 107.126 29.5773C106.623 29.9097 106.231 30.3933 105.95 31.0283C105.668 31.659 105.528 32.4303 105.528 33.3422C105.528 34.2541 105.666 35.0297 105.943 35.6689C106.22 36.3081 106.612 36.796 107.119 37.1327C107.627 37.4651 108.225 37.6313 108.916 37.6313C109.542 37.6313 110.077 37.5205 110.52 37.2989C110.967 37.073 111.308 36.7556 111.543 36.3465C111.781 35.9374 111.901 35.4537 111.901 34.8955L112.463 34.9786H109.088V32.8948H114.566V34.5439C114.566 35.6945 114.323 36.6831 113.837 37.5098C113.352 38.3323 112.683 38.9672 111.83 39.4147C110.978 39.8578 110.002 40.0794 108.903 40.0794C107.676 40.0794 106.597 39.8088 105.668 39.2676C104.739 38.7222 104.015 37.9487 103.495 36.9473C102.98 35.9416 102.722 34.7485 102.722 33.3678C102.722 32.3067 102.875 31.3607 103.182 30.5297C103.493 29.6945 103.928 28.9871 104.486 28.4076C105.044 27.828 105.694 27.387 106.435 27.0844C107.177 26.7818 107.98 26.6306 108.845 26.6306C109.587 26.6306 110.277 26.7392 110.916 26.9566C111.556 27.1696 112.122 27.4722 112.617 27.8642C113.115 28.2563 113.522 28.7229 113.837 29.2641C114.153 29.801 114.355 30.3933 114.445 31.0411H111.632Z" fill="#FFFFFB"/>
<path d="M46.1709 72.7511V59.6602H54.8385V61.9421H48.9386V65.0615H54.2632V67.3434H48.9386V72.7511H46.1709ZM56.7002 72.7511V59.6602H59.4679V70.4691H65.0801V72.7511H56.7002ZM69.5034 72.7511H66.5375L71.0567 59.6602H74.6235L79.1362 72.7511H76.1703L72.8912 62.6517H72.7889L69.5034 72.7511ZM69.3181 67.6055H76.3237V69.766H69.3181V67.6055ZM87.5146 63.4251C87.4635 62.9095 87.244 62.5089 86.8562 62.2234C86.4685 61.9379 85.9422 61.7951 85.2774 61.7951C84.8257 61.7951 84.4443 61.8591 84.1332 61.9869C83.8221 62.1105 83.5835 62.2831 83.4173 62.5046C83.2554 62.7262 83.1744 62.9777 83.1744 63.2589C83.1659 63.4933 83.2149 63.6978 83.3214 63.8725C83.4322 64.0473 83.5835 64.1985 83.7753 64.3264C83.967 64.45 84.1886 64.5586 84.44 64.6524C84.6915 64.7419 84.9599 64.8186 85.2454 64.8825L86.4216 65.1637C86.9926 65.2916 87.5167 65.462 87.994 65.6751C88.4713 65.8882 88.8846 66.1502 89.2341 66.4613C89.5835 66.7724 89.8541 67.1389 90.0459 67.5608C90.2419 67.9826 90.342 68.4663 90.3463 69.0118C90.342 69.8129 90.1375 70.5075 89.7327 71.0956C89.3321 71.6794 88.7525 72.1332 87.994 72.4571C87.2398 72.7767 86.33 72.9365 85.2646 72.9365C84.2078 72.9365 83.2873 72.7745 82.5033 72.4507C81.7234 72.1268 81.114 71.6474 80.6751 71.0125C80.2405 70.3733 80.0125 69.5828 79.9912 68.641H82.6694C82.6993 69.0799 82.825 69.4464 83.0466 69.7404C83.2724 70.0302 83.5729 70.2497 83.9479 70.3988C84.3271 70.5437 84.7554 70.6162 85.2327 70.6162C85.7014 70.6162 86.1084 70.548 86.4535 70.4116C86.803 70.2752 87.0736 70.0856 87.2653 69.8427C87.4571 69.5998 87.553 69.3207 87.553 69.0054C87.553 68.7113 87.4656 68.4642 87.2909 68.2639C87.1204 68.0636 86.869 67.8931 86.5366 67.7525C86.2085 67.6119 85.8058 67.4841 85.3285 67.369L83.9031 67.011C82.7994 66.7426 81.928 66.3228 81.2888 65.7518C80.6496 65.1808 80.3321 64.4116 80.3363 63.4443C80.3321 62.6517 80.543 61.9592 80.9692 61.3669C81.3996 60.7745 81.9898 60.3122 82.7398 59.9798C83.4898 59.6474 84.342 59.4812 85.2966 59.4812C86.2682 59.4812 87.1162 59.6474 87.8406 59.9798C88.5693 60.3122 89.1361 60.7745 89.5409 61.3669C89.9457 61.9592 90.1545 62.6453 90.1673 63.4251H87.5146ZM92.208 72.7511V59.6602H94.9757V65.0615H100.594V59.6602H103.356V72.7511H100.594V67.3434H94.9757V72.7511H92.208ZM117.188 64.2433H114.388C114.337 63.8811 114.233 63.5593 114.075 63.2781C113.917 62.9926 113.715 62.7497 113.468 62.5494C113.221 62.3491 112.935 62.1957 112.611 62.0892C112.292 61.9826 111.944 61.9294 111.569 61.9294C110.892 61.9294 110.302 62.0977 109.799 62.4343C109.296 62.7667 108.906 63.2525 108.629 63.8917C108.352 64.5267 108.214 65.298 108.214 66.2056C108.214 67.1389 108.352 67.923 108.629 68.5579C108.91 69.1929 109.302 69.6723 109.805 69.9961C110.308 70.32 110.89 70.4819 111.55 70.4819C111.921 70.4819 112.264 70.4329 112.579 70.3349C112.899 70.2369 113.182 70.0941 113.43 69.9066C113.677 69.7149 113.881 69.4826 114.043 69.2099C114.209 68.9372 114.324 68.6261 114.388 68.2767L117.188 68.2895C117.116 68.8903 116.935 69.4698 116.645 70.0281C116.359 70.5821 115.974 71.0785 115.488 71.5174C115.006 71.9521 114.431 72.2973 113.762 72.5529C113.097 72.8044 112.345 72.9301 111.506 72.9301C110.338 72.9301 109.294 72.6659 108.373 72.1375C107.457 71.6091 106.733 70.8441 106.2 69.8427C105.672 68.8413 105.408 67.6289 105.408 66.2056C105.408 64.7781 105.676 63.5636 106.213 62.5622C106.75 61.5608 107.479 60.798 108.399 60.2738C109.319 59.7454 110.355 59.4812 111.506 59.4812C112.264 59.4812 112.967 59.5877 113.615 59.8008C114.267 60.0139 114.844 60.325 115.347 60.7341C115.85 61.1389 116.259 61.6353 116.574 62.2234C116.894 62.8115 117.099 63.4848 117.188 64.2433ZM121.183 72.7511H118.217L122.736 59.6602H126.303L130.816 72.7511H127.85L124.571 62.6517H124.469L121.183 72.7511ZM120.998 67.6055H128.003V69.766H120.998V67.6055ZM132.392 72.7511V59.6602H137.556C138.545 59.6602 139.389 59.837 140.088 60.1907C140.791 60.5402 141.326 61.0366 141.692 61.6801C142.063 62.3193 142.248 63.0714 142.248 63.9365C142.248 64.8058 142.061 65.5537 141.686 66.1801C141.311 66.8022 140.767 67.2795 140.056 67.6119C139.348 67.9443 138.492 68.1105 137.486 68.1105H134.028V65.886H137.039C137.567 65.886 138.006 65.8136 138.355 65.6687C138.705 65.5238 138.965 65.3065 139.135 65.0167C139.31 64.727 139.397 64.3669 139.397 63.9365C139.397 63.5018 139.31 63.1353 139.135 62.837C138.965 62.5387 138.703 62.3129 138.349 62.1595C138 62.0018 137.558 61.923 137.026 61.923H135.159V72.7511H132.392ZM139.461 66.7937L142.715 72.7511H139.659L136.476 66.7937H139.461ZM148.845 72.7511H144.204V59.6602H148.883C150.2 59.6602 151.333 59.9223 152.284 60.4464C153.234 60.9663 153.965 61.7142 154.476 62.69C154.992 63.6659 155.25 64.8335 155.25 66.1929C155.25 67.5565 154.992 68.7284 154.476 69.7085C153.965 70.6886 153.23 71.4407 152.271 71.9649C151.316 72.489 150.174 72.7511 148.845 72.7511ZM146.972 70.3796H148.73C149.548 70.3796 150.236 70.2348 150.794 69.945C151.357 69.651 151.779 69.1971 152.06 68.5835C152.345 67.9656 152.488 67.1687 152.488 66.1929C152.488 65.2255 152.345 64.435 152.06 63.8214C151.779 63.2078 151.359 62.7561 150.801 62.4663C150.242 62.1765 149.554 62.0316 148.736 62.0316H146.972V70.3796ZM164.401 63.4251C164.35 62.9095 164.131 62.5089 163.743 62.2234C163.355 61.9379 162.829 61.7951 162.164 61.7951C161.712 61.7951 161.331 61.8591 161.02 61.9869C160.709 62.1105 160.47 62.2831 160.304 62.5046C160.142 62.7262 160.061 62.9777 160.061 63.2589C160.053 63.4933 160.102 63.6978 160.208 63.8725C160.319 64.0473 160.47 64.1985 160.662 64.3264C160.854 64.45 161.075 64.5586 161.327 64.6524C161.578 64.7419 161.847 64.8186 162.132 64.8825L163.308 65.1637C163.879 65.2916 164.403 65.462 164.881 65.6751C165.358 65.8882 165.771 66.1502 166.121 66.4613C166.47 66.7724 166.741 67.1389 166.933 67.5608C167.129 67.9826 167.229 68.4663 167.233 69.0118C167.229 69.8129 167.024 70.5075 166.619 71.0956C166.219 71.6794 165.639 72.1332 164.881 72.4571C164.126 72.7767 163.217 72.9365 162.151 72.9365C161.095 72.9365 160.174 72.7745 159.39 72.4507C158.61 72.1268 158.001 71.6474 157.562 71.0125C157.127 70.3733 156.899 69.5828 156.878 68.641H159.556C159.586 69.0799 159.712 69.4464 159.933 69.7404C160.159 70.0302 160.46 70.2497 160.835 70.3988C161.214 70.5437 161.642 70.6162 162.119 70.6162C162.588 70.6162 162.995 70.548 163.34 70.4116C163.69 70.2752 163.96 70.0856 164.152 69.8427C164.344 69.5998 164.44 69.3207 164.44 69.0054C164.44 68.7113 164.352 68.4642 164.178 68.2639C164.007 68.0636 163.756 67.8931 163.423 67.7525C163.095 67.6119 162.693 67.4841 162.215 67.369L160.79 67.011C159.686 66.7426 158.815 66.3228 158.175 65.7518C157.536 65.1808 157.219 64.4116 157.223 63.4443C157.219 62.6517 157.43 61.9592 157.856 61.3669C158.286 60.7745 158.876 60.3122 159.626 59.9798C160.376 59.6474 161.229 59.4812 162.183 59.4812C163.155 59.4812 164.003 59.6474 164.727 59.9798C165.456 60.3122 166.023 60.7745 166.428 61.3669C166.832 61.9592 167.041 62.6453 167.054 63.4251H164.401Z" fill="#FFFFFB"/>
</svg>
