<svg width="173" height="244" viewBox="0 0 173 244" fill="none" xmlns="http://www.w3.org/2000/svg">
<path d="M161.515 25.782L71.8058 132.693L41.0801 106.911L161.515 25.782Z" fill="#5B5F97"/>
<path d="M-2.80036e-06 218.005L89.9903 110.759L120.881 136.679L-2.80036e-06 218.005Z" fill="#FFFFFB"/>
<path d="M46.1943 162.893L51.2403 156.879L52.4361 157.883L48.5343 162.533L50.2936 164.009L53.6071 160.06L54.7298 161.002L51.4163 164.951L54.0618 167.171L52.9176 168.534L46.1943 162.893ZM52.3447 155.563L53.4889 154.199L59.0164 158.837L62.2973 154.927L63.4931 155.931L59.068 161.204L52.3447 155.563ZM57.7372 149.136L58.8886 147.764L65.6119 153.406L64.4605 154.778L57.7372 149.136ZM60.3504 146.022L63.3245 142.478C63.7577 141.962 64.189 141.561 64.6184 141.276C65.0479 140.992 65.4734 140.814 65.895 140.742C66.3137 140.668 66.7255 140.699 67.1306 140.833C67.538 140.965 67.9324 141.191 68.3138 141.511C68.6723 141.812 68.953 142.15 69.1559 142.526C69.3588 142.901 69.4674 143.307 69.4817 143.745C69.4956 144.176 69.4068 144.635 69.2154 145.119C69.0211 145.601 68.7073 146.1 68.2742 146.616L66.4327 148.802L68.2179 150.3L67.0737 151.664L60.3504 146.022ZM67.1129 145.598C67.3295 145.34 67.4883 145.089 67.5893 144.847C67.6898 144.599 67.7383 144.363 67.7348 144.141C67.7307 143.912 67.6749 143.699 67.5673 143.502C67.4591 143.298 67.3062 143.114 67.1083 142.948C66.7097 142.613 66.2905 142.484 65.8507 142.56C65.4105 142.63 64.9738 142.923 64.5406 143.44L62.6818 145.655L65.2541 147.813L67.1129 145.598ZM67.1144 137.961L70.0886 134.417C70.5217 133.901 70.953 133.5 71.3825 133.215C71.8119 132.931 72.2374 132.753 72.659 132.681C73.0777 132.607 73.4895 132.638 73.8946 132.772C74.302 132.904 74.6964 133.13 75.0778 133.45C75.4363 133.751 75.717 134.089 75.9199 134.465C76.1228 134.84 76.2314 135.246 76.2458 135.684C76.2596 136.115 76.1709 136.574 75.9794 137.058C75.7851 137.54 75.4714 138.039 75.0382 138.555L73.1967 140.741L74.9819 142.239L73.8377 143.603L67.1144 137.961ZM73.877 137.537C74.0935 137.279 74.2523 137.028 74.3533 136.786C74.4539 136.538 74.5023 136.302 74.4988 136.08C74.4948 135.851 74.4389 135.638 74.3313 135.441C74.2232 135.237 74.0702 135.053 73.8723 134.887C73.4737 134.552 73.0545 134.423 72.6147 134.499C72.1745 134.569 71.7378 134.862 71.3047 135.378L69.4458 137.594L72.0181 139.752L73.877 137.537ZM73.7341 130.072L74.8855 128.7L81.6087 134.341L80.4573 135.714L73.7341 130.072ZM76.3401 126.966L77.4842 125.603L83.1936 123.254L80.9998 121.413L82.144 120.05L88.8672 125.691L87.7231 127.055L84.6389 124.467L78.9424 126.826L84.2075 131.244L83.0633 132.608L76.3401 126.966ZM86.6524 121.377C86.1792 120.98 85.8122 120.521 85.5513 119.999C85.2875 119.474 85.1469 118.914 85.1292 118.318C85.1116 117.721 85.2235 117.102 85.4648 116.459C85.7086 115.813 86.1 115.169 86.639 114.527C86.8339 114.294 87.0417 114.073 87.2624 113.862C87.4827 113.646 87.7136 113.447 87.9554 113.264C88.1995 113.078 88.4519 112.911 88.7127 112.763C88.973 112.61 89.2394 112.482 89.512 112.378L90.0174 113.872C89.8499 113.932 89.6764 114.014 89.4968 114.117C89.3143 114.218 89.1322 114.339 88.9506 114.48C88.7685 114.615 88.5904 114.767 88.4163 114.933C88.2446 115.097 88.0818 115.271 87.9278 115.454C87.5717 115.879 87.3085 116.303 87.1384 116.727C86.9653 117.149 86.8801 117.556 86.8826 117.949C86.8822 118.34 86.9663 118.708 87.1348 119.055C87.3033 119.402 87.5481 119.71 87.8693 119.979C88.202 120.258 88.5603 120.451 88.9443 120.559C89.3284 120.666 89.7182 120.688 90.1139 120.624C90.5095 120.56 90.903 120.411 91.2945 120.178C91.683 119.942 92.0482 119.62 92.3899 119.213C92.6618 118.889 92.875 118.562 93.0295 118.232C93.1811 117.9 93.2737 117.577 93.3074 117.263C93.3411 116.95 93.3162 116.65 93.2328 116.365C93.1465 116.078 93.0012 115.814 92.7969 115.574L90.8262 117.923L89.7035 116.981L92.7029 113.406L92.7072 113.41L92.7065 113.402C93.1108 113.619 93.4643 113.879 93.7672 114.182C94.0696 114.48 94.3139 114.812 94.5 115.178C94.6857 115.539 94.81 115.927 94.8728 116.341C94.9356 116.756 94.9306 117.184 94.8577 117.626C94.7819 118.066 94.6351 118.514 94.4174 118.972C94.1968 119.427 93.8989 119.878 93.5235 120.325C92.9989 120.951 92.4367 121.434 91.8369 121.776C91.2395 122.116 90.6373 122.324 90.0302 122.401C89.4231 122.478 88.8289 122.429 88.2477 122.254C87.6688 122.076 87.137 121.784 86.6524 121.377Z" fill="#5B5F97"/>
<path d="M64.6281 126.711L69.8934 120.436L71.1412 121.483L67.0698 126.335L68.9056 127.875L72.3631 123.755L73.5346 124.738L70.0771 128.858L72.8376 131.175L71.6436 132.597L64.6281 126.711ZM71.0459 119.062L72.2398 117.639L78.0076 122.479L81.4312 118.399L82.679 119.446L78.0615 124.949L71.0459 119.062ZM78.8309 109.784L80.0964 108.276L89.9593 110.77L88.7051 112.264L87.0539 111.835L83.6152 115.933L84.34 117.467L83.082 118.966L78.8309 109.784ZM85.4116 111.413L80.9517 110.256L82.8994 114.407L85.4116 111.413ZM89.0623 107.6C89.4194 107.466 89.7655 107.318 90.1006 107.156C90.4353 106.988 90.761 106.797 91.0779 106.583C91.3917 106.367 91.6989 106.123 91.9994 105.85C92.3024 105.574 92.6008 105.261 92.8946 104.911C93.2486 104.489 93.523 104.107 93.7177 103.766C93.9094 103.422 94.0352 103.117 94.0952 102.851C94.1546 102.579 94.1521 102.345 94.0878 102.149C94.0259 101.949 93.9157 101.782 93.7571 101.649C93.5028 101.436 93.2132 101.374 92.8883 101.463C92.5604 101.55 92.2106 101.815 91.839 102.258C91.6758 102.453 91.5173 102.669 91.3634 102.907C91.2066 103.142 91.0502 103.383 90.8943 103.63C90.741 103.874 90.5873 104.114 90.4335 104.352C90.2792 104.585 90.1229 104.795 89.9647 104.984C89.7011 105.298 89.4071 105.566 89.0827 105.789C88.7609 106.008 88.425 106.163 88.0751 106.251C87.7277 106.337 87.3776 106.344 87.0247 106.273C86.6719 106.201 86.3338 106.029 86.0107 105.758C85.8192 105.598 85.6505 105.413 85.5047 105.204C85.3613 104.992 85.2521 104.757 85.1769 104.5C85.1013 104.238 85.0668 103.954 85.0733 103.648C85.0768 103.34 85.1327 103.012 85.2409 102.665C85.3517 102.314 85.519 101.944 85.7428 101.556C85.9662 101.162 86.26 100.748 86.6241 100.315C86.8877 100 87.1706 99.6997 87.4726 99.4126C87.7717 99.1231 88.0782 98.855 88.3921 98.6085C88.7086 98.359 89.0284 98.1328 89.3517 97.9298C89.672 97.7243 89.9864 97.5471 90.295 97.3981L90.9206 98.9862C90.6681 99.1109 90.4105 99.2568 90.1479 99.424C89.8822 99.5886 89.6183 99.7725 89.356 99.9757C89.0938 100.179 88.8359 100.401 88.5825 100.642C88.3287 100.878 88.0862 101.133 87.8552 101.409C87.5263 101.801 87.2835 102.148 87.127 102.45C86.9729 102.749 86.878 103.011 86.8422 103.236C86.8035 103.458 86.8143 103.646 86.8748 103.799C86.9348 103.946 87.0187 104.065 87.1264 104.155C87.3359 104.331 87.5871 104.381 87.8799 104.305C88.1697 104.227 88.4766 103.995 88.8005 103.609C88.9311 103.454 89.07 103.267 89.2173 103.049C89.3641 102.825 89.5169 102.591 89.6758 102.347C89.8372 102.1 90.0041 101.853 90.1765 101.605C90.3484 101.351 90.526 101.115 90.7093 100.897C91.0558 100.484 91.4085 100.158 91.7674 99.9186C92.1288 99.6763 92.4867 99.5202 92.8411 99.4504C93.1924 99.378 93.5372 99.3894 93.8755 99.4846C94.2108 99.5773 94.5296 99.7504 94.8318 100.004C95.2358 100.343 95.5172 100.74 95.6762 101.194C95.8348 101.644 95.8776 102.133 95.8048 102.664C95.7315 103.189 95.5471 103.743 95.2515 104.326C94.9529 104.907 94.5526 105.496 94.0504 106.095C93.719 106.49 93.3696 106.854 93.0024 107.189C92.6381 107.526 92.2655 107.83 91.8844 108.102C91.5029 108.368 91.1175 108.605 90.7282 108.814C90.3384 109.017 89.9554 109.188 89.5794 109.326L89.0623 107.6ZM91.5686 94.6041L92.7626 93.1812L94.5939 94.7179L98.2548 90.355L96.4234 88.8184L97.6211 87.391L104.637 93.2778L103.439 94.7052L99.4712 91.3757L95.8103 95.7386L99.7782 99.068L98.5842 100.491L91.5686 94.6041ZM102.401 88.7321C101.901 88.3128 101.515 87.8281 101.242 87.278C100.966 86.7254 100.819 86.138 100.801 85.5158C100.782 84.888 100.897 84.2402 101.147 83.5724C101.398 82.9015 101.798 82.2399 102.345 81.5876C102.825 81.0161 103.323 80.5414 103.839 80.1635C104.354 79.7801 104.902 79.4827 105.482 79.2711L106.01 80.8303C105.826 80.8852 105.635 80.9671 105.437 81.0759C105.241 81.1818 105.045 81.3084 104.85 81.4558C104.655 81.5977 104.463 81.7558 104.276 81.9302C104.091 82.1017 103.92 82.2816 103.762 82.4702C103.38 82.925 103.097 83.3782 102.912 83.8297C102.724 84.2787 102.628 84.7112 102.626 85.1273C102.623 85.538 102.708 85.9256 102.882 86.2903C103.055 86.6495 103.308 86.9697 103.644 87.2509C103.991 87.5422 104.365 87.7438 104.765 87.8556C105.166 87.9675 105.577 87.9884 105.998 87.9183C106.418 87.8428 106.839 87.6756 107.26 87.417C107.68 87.1528 108.081 86.7933 108.463 86.3385C108.636 86.132 108.793 85.9145 108.934 85.6859C109.075 85.4573 109.199 85.2274 109.306 84.9962C109.413 84.7595 109.505 84.5227 109.581 84.2859C109.655 84.0466 109.712 83.8142 109.753 83.5888L111.38 83.8374C111.304 84.4263 111.126 85.0311 110.844 85.6519C110.56 86.2701 110.181 86.862 109.706 87.4275C109.101 88.1487 108.477 88.7037 107.835 89.0927C107.189 89.4791 106.55 89.718 105.918 89.8094C105.282 89.8983 104.665 89.8496 104.067 89.6636C103.468 89.472 102.912 89.1615 102.401 88.7321ZM108.382 74.5673L109.647 73.0591L119.51 75.5526L118.256 77.0472L116.605 76.6178L113.166 80.7158L113.891 82.2495L112.633 83.7486L108.382 74.5673ZM114.962 76.1958L110.502 75.0388L112.45 79.1897L114.962 76.1958ZM113.41 68.5751L116.404 65.0067C116.856 64.468 117.304 64.0489 117.75 63.7494C118.192 63.4473 118.628 63.2552 119.059 63.1731C119.49 63.0911 119.911 63.1153 120.321 63.2457C120.735 63.3731 121.134 63.5988 121.52 63.9227C121.781 64.1412 122.003 64.381 122.186 64.6422C122.367 64.9009 122.501 65.1789 122.588 65.4763C122.677 65.7707 122.717 66.0819 122.707 66.41C122.694 66.7355 122.626 67.0741 122.505 67.4258L126.03 67.7829L124.568 69.5244L121.468 69.1718L121.434 69.2122L119.622 71.363L121.619 73.039L120.425 74.4618L113.41 68.5751ZM120.222 68.1495C120.448 67.8802 120.614 67.619 120.719 67.3658C120.827 67.1095 120.881 66.8664 120.88 66.6363C120.882 66.4033 120.83 66.186 120.723 65.9846C120.616 65.7777 120.463 65.5901 120.262 65.4219C119.87 65.093 119.455 64.974 119.017 65.0651C118.575 65.1536 118.127 65.4687 117.673 66.0103L115.842 68.1917L118.392 70.331L120.222 68.1495ZM120.468 60.1635L122.626 57.5916C123.256 56.8405 123.884 56.256 124.51 55.838C125.136 55.42 125.753 55.1567 126.359 55.0483C126.964 54.9343 127.556 54.9698 128.135 55.1548C128.714 55.3343 129.271 55.6488 129.807 56.0983C130.315 56.5251 130.713 57.0089 130.998 57.5495C131.281 58.0876 131.429 58.6708 131.443 59.299C131.453 59.9247 131.316 60.5897 131.031 61.294C130.743 61.9957 130.284 62.7221 129.653 63.4732L127.483 66.0503L120.468 60.1635ZM128.705 62.0963C129.062 61.6714 129.321 61.2536 129.482 60.8431C129.64 60.43 129.707 60.0331 129.685 59.6524C129.665 59.2687 129.559 58.9038 129.365 58.5575C129.171 58.2112 128.899 57.8912 128.549 57.5974C128.205 57.3087 127.85 57.1027 127.484 56.9794C127.115 56.8536 126.745 56.8181 126.373 56.8729C126 56.9221 125.627 57.0629 125.253 57.2952C124.88 57.5275 124.515 57.8561 124.158 58.281L122.9 59.7802L127.447 63.5955L128.705 62.0963ZM132.729 55.5598C133.086 55.426 133.432 55.2778 133.768 55.1154C134.102 54.9475 134.428 54.7568 134.745 54.5433C135.059 54.3273 135.366 54.0828 135.666 53.8097C135.969 53.5337 136.268 53.2206 136.561 52.8705C136.915 52.4486 137.19 52.0669 137.385 51.7254C137.576 51.3815 137.702 51.0766 137.762 50.8107C137.821 50.5393 137.819 50.3053 137.755 50.1085C137.693 49.9087 137.583 49.7423 137.424 49.6092C137.17 49.3958 136.88 49.3338 136.555 49.4232C136.227 49.5101 135.877 49.775 135.506 50.2179C135.343 50.4124 135.184 50.6287 135.03 50.8667C134.873 51.1022 134.717 51.3433 134.561 51.5898C134.408 51.8334 134.254 52.0742 134.1 52.3122C133.946 52.5448 133.79 52.7553 133.632 52.9438C133.368 53.258 133.074 53.5264 132.75 53.7488C132.428 53.9683 132.092 54.1224 131.742 54.2113C131.395 54.2971 131.044 54.3042 130.692 54.2325C130.339 54.1608 130.001 53.9893 129.678 53.7181C129.486 53.5574 129.317 53.3726 129.172 53.1635C129.028 52.9515 128.919 52.717 128.844 52.4602C128.768 52.1979 128.734 51.9139 128.74 51.6083C128.744 51.3003 128.8 50.9724 128.908 50.6246C129.019 50.2739 129.186 49.9043 129.41 49.516C129.633 49.1221 129.927 48.7083 130.291 48.2744C130.555 47.9602 130.837 47.6595 131.139 47.3725C131.439 47.0829 131.745 46.8149 132.059 46.5684C132.375 46.3189 132.695 46.0926 133.019 45.8897C133.339 45.6842 133.653 45.507 133.962 45.358L134.587 46.9461C134.335 47.0707 134.077 47.2167 133.815 47.3838C133.549 47.5485 133.285 47.7324 133.023 47.9355C132.761 48.1387 132.503 48.3609 132.249 48.6021C131.996 48.8378 131.753 49.0933 131.522 49.3686C131.193 49.7606 130.95 50.1076 130.794 50.4097C130.64 50.7088 130.545 50.9708 130.509 51.1957C130.47 51.4181 130.481 51.6057 130.542 51.7585C130.602 51.9057 130.686 52.0246 130.793 52.1149C131.003 52.2907 131.254 52.3408 131.547 52.2653C131.837 52.1873 132.143 51.9552 132.467 51.5692C132.598 51.4136 132.737 51.2268 132.884 51.0087C133.031 50.7852 133.184 50.5514 133.343 50.3073C133.504 50.0603 133.671 49.8128 133.843 49.5648C134.015 49.3113 134.193 49.0753 134.376 48.8569C134.723 48.444 135.075 48.1178 135.434 47.8784C135.796 47.6361 136.154 47.48 136.508 47.4102C136.859 47.3379 137.204 47.3493 137.542 47.4445C137.878 47.5371 138.196 47.7103 138.499 47.9639C138.903 48.3028 139.184 48.6997 139.343 49.1543C139.502 49.6035 139.544 50.0933 139.472 50.6237C139.398 51.1486 139.214 51.7026 138.918 52.2858C138.62 52.8665 138.219 53.456 137.717 54.0545C137.386 54.4495 137.036 54.8142 136.669 55.1485C136.305 55.4854 135.932 55.7897 135.551 56.0615C135.17 56.3278 134.784 56.5653 134.395 56.774C134.005 56.9773 133.622 57.148 133.246 57.2863L132.729 55.5598Z" fill="#FFFFFB"/>
</svg>
