<svg width="845" height="500" viewBox="0 0 850 500" fill="none" xmlns="http://www.w3.org/2000/svg">
<path d="M248.046 230.793H292.416V239.616H258.107V252.597H287.243V260.881H258.107V280.4H248.046V230.793ZM302.128 230.793H312.189V271.577H341.039V280.4H302.128V230.793ZM349.545 230.793H359.669V280.4H349.545V230.793ZM372.523 230.793H398.676C402.484 230.793 405.785 231.206 408.578 232.031C411.371 232.856 413.688 234.052 415.529 235.617C417.37 237.162 418.734 239.056 419.623 241.298C420.533 243.541 420.988 246.07 420.988 248.884C420.988 251.529 420.543 253.973 419.655 256.215C418.766 258.458 417.401 260.405 415.561 262.055C413.741 263.685 411.435 264.965 408.642 265.896C405.849 266.805 402.548 267.26 398.739 267.26L382.584 267.229V280.4H372.523V230.793ZM398.93 258.532C400.834 258.532 402.495 258.31 403.913 257.866C405.351 257.4 406.547 256.755 407.499 255.93C408.472 255.083 409.192 254.068 409.657 252.883C410.144 251.677 410.387 250.344 410.387 248.884C410.387 245.943 409.424 243.658 407.499 242.028C405.595 240.378 402.738 239.553 398.93 239.553H382.584V258.532H398.93ZM432.001 230.793H458.153C461.962 230.793 465.263 231.206 468.056 232.031C470.849 232.856 473.166 234.052 475.006 235.617C476.847 237.162 478.212 239.056 479.101 241.298C480.01 243.541 480.465 246.07 480.465 248.884C480.465 251.529 480.021 253.973 479.132 256.215C478.244 258.458 476.879 260.405 475.038 262.055C473.218 263.685 470.912 264.965 468.119 265.896C465.326 266.805 462.025 267.26 458.217 267.26L442.062 267.229V280.4H432.001V230.793ZM458.407 258.532C460.312 258.532 461.972 258.31 463.39 257.866C464.829 257.4 466.024 256.755 466.977 255.93C467.95 255.083 468.669 254.068 469.135 252.883C469.621 251.677 469.865 250.344 469.865 248.884C469.865 245.943 468.902 243.658 466.977 242.028C465.072 240.378 462.216 239.553 458.407 239.553H442.062V258.532H458.407ZM490.209 230.793H500.333V280.4H490.209V230.793ZM513.124 230.793H523.185L554.098 246.98V230.793H564.159V280.4H554.098V257.644L523.185 241.552V280.4H513.124V230.793ZM574.791 255.136C574.791 251.645 575.447 248.387 576.759 245.361C578.071 242.314 579.986 239.669 582.504 237.426C585.022 235.184 588.111 233.417 591.771 232.126C595.453 230.835 599.664 230.19 604.403 230.19C606.117 230.19 607.831 230.285 609.545 230.476C611.28 230.645 612.983 230.92 614.655 231.301C616.347 231.682 617.987 232.168 619.574 232.761C621.182 233.332 622.706 234.02 624.145 234.824L619.511 242.441C618.643 241.933 617.659 241.478 616.559 241.076C615.459 240.653 614.274 240.304 613.004 240.029C611.756 239.733 610.455 239.511 609.101 239.362C607.768 239.214 606.424 239.14 605.07 239.14C601.938 239.14 599.145 239.542 596.691 240.346C594.236 241.129 592.163 242.24 590.47 243.679C588.777 245.096 587.487 246.8 586.598 248.789C585.709 250.778 585.265 252.957 585.265 255.327C585.265 257.781 585.731 260.035 586.662 262.087C587.593 264.139 588.915 265.906 590.629 267.387C592.343 268.868 594.416 270.032 596.85 270.879C599.283 271.704 602.002 272.116 605.006 272.116C607.397 272.116 609.587 271.852 611.576 271.323C613.565 270.773 615.3 270 616.781 269.006C618.262 268.012 619.468 266.816 620.399 265.42C621.33 264.002 621.944 262.415 622.24 260.659H604.911V252.375H631.286V252.407L631.317 252.375C631.846 254.914 632.005 257.39 631.793 259.802C631.603 262.193 631.053 264.457 630.143 266.594C629.254 268.71 628.027 270.656 626.461 272.434C624.896 274.211 623.023 275.745 620.844 277.036C618.664 278.305 616.189 279.3 613.417 280.019C610.645 280.717 607.609 281.067 604.308 281.067C599.695 281.067 595.559 280.389 591.898 279.035C588.259 277.681 585.17 275.83 582.631 273.481C580.092 271.132 578.145 268.382 576.791 265.229C575.458 262.076 574.791 258.712 574.791 255.136Z" fill="#5B5F97"/>
<path d="M331.547 52.848L147.661 271.994L84.6795 219.146L331.547 52.848Z" fill="#5B5F97"/>
<path d="M-3.92923e-06 446.471L184.462 226.637L248.256 280.166L-3.92923e-06 446.471Z" fill="#5B5F97"/>
<path d="M248.046 280.393H292.416V289.216H258.107V302.197H287.243V310.481H258.107V330H248.046V280.393ZM302.128 280.393H312.189V321.177H341.039V330H302.128V280.393ZM367.731 280.393H378.395L402.389 330H391.82L387.853 321.653H358.876L355.036 330H344.435L367.731 280.393ZM383.886 313.369L373.158 290.835L362.716 313.369H383.886ZM412.418 315.242C414.217 316.257 416.037 317.178 417.877 318.003C419.739 318.807 421.665 319.495 423.654 320.066C425.643 320.616 427.727 321.039 429.906 321.335C432.107 321.632 434.445 321.78 436.92 321.78C439.904 321.78 442.443 321.589 444.538 321.208C446.632 320.806 448.336 320.267 449.647 319.59C450.98 318.892 451.943 318.066 452.536 317.114C453.149 316.162 453.456 315.125 453.456 314.004C453.456 312.205 452.705 310.788 451.203 309.751C449.7 308.693 447.383 308.164 444.252 308.164C442.877 308.164 441.427 308.259 439.904 308.45C438.38 308.619 436.836 308.809 435.27 309.021C433.725 309.233 432.191 309.434 430.668 309.624C429.166 309.793 427.748 309.878 426.415 309.878C424.193 309.878 422.056 309.592 420.004 309.021C417.973 308.45 416.164 307.593 414.577 306.45C413.011 305.308 411.763 303.879 410.832 302.166C409.901 300.452 409.435 298.452 409.435 296.167C409.435 294.813 409.615 293.469 409.975 292.136C410.355 290.803 410.948 289.534 411.752 288.328C412.577 287.1 413.635 285.968 414.926 284.932C416.216 283.874 417.772 282.964 419.591 282.202C421.432 281.44 423.548 280.848 425.939 280.425C428.351 279.98 431.091 279.758 434.159 279.758C436.381 279.758 438.613 279.885 440.856 280.139C443.099 280.372 445.278 280.71 447.394 281.155C449.531 281.599 451.583 282.139 453.551 282.773C455.519 283.387 457.349 284.075 459.042 284.836L454.63 292.961C453.234 292.348 451.732 291.787 450.124 291.279C448.515 290.75 446.833 290.295 445.077 289.915C443.321 289.534 441.501 289.237 439.618 289.026C437.756 288.793 435.852 288.677 433.905 288.677C431.133 288.677 428.848 288.878 427.05 289.28C425.272 289.682 423.855 290.2 422.797 290.835C421.739 291.449 420.998 292.147 420.575 292.93C420.173 293.691 419.972 294.453 419.972 295.215C419.972 296.696 420.639 297.913 421.972 298.865C423.305 299.796 425.336 300.261 428.065 300.261C429.166 300.261 430.425 300.187 431.842 300.039C433.281 299.87 434.783 299.69 436.349 299.5C437.936 299.309 439.544 299.14 441.173 298.992C442.824 298.822 444.421 298.738 445.966 298.738C448.886 298.738 451.467 299.066 453.71 299.722C455.974 300.378 457.868 301.319 459.391 302.546C460.915 303.752 462.068 305.223 462.851 306.958C463.633 308.672 464.025 310.597 464.025 312.734C464.025 315.591 463.358 318.14 462.025 320.383C460.714 322.605 458.83 324.488 456.376 326.033C453.943 327.556 451.002 328.72 447.553 329.524C444.104 330.307 440.263 330.698 436.032 330.698C433.239 330.698 430.509 330.518 427.843 330.159C425.177 329.82 422.617 329.333 420.163 328.699C417.729 328.043 415.402 327.271 413.18 326.382C410.98 325.472 408.938 324.478 407.055 323.398L412.418 315.242ZM475.07 280.393H485.131V293.342H515.98V280.393H526.073V330H515.98V301.943H485.131V330H475.07V280.393ZM537.15 304.895C537.15 301.361 537.816 298.071 539.149 295.024C540.482 291.956 542.408 289.301 544.926 287.058C547.465 284.794 550.554 283.017 554.193 281.726C557.854 280.435 561.99 279.79 566.603 279.79C570.644 279.79 574.347 280.203 577.711 281.028C581.097 281.832 584.239 283.07 587.138 284.741L582.504 292.358C581.636 291.787 580.631 291.279 579.489 290.835C578.367 290.391 577.161 290.02 575.871 289.724C574.601 289.407 573.279 289.163 571.903 288.994C570.549 288.825 569.206 288.74 567.873 288.74C564.656 288.74 561.789 289.142 559.271 289.946C556.754 290.729 554.627 291.84 552.892 293.279C551.178 294.696 549.866 296.4 548.957 298.389C548.068 300.356 547.624 302.525 547.624 304.895C547.624 307.349 548.089 309.603 549.02 311.655C549.951 313.708 551.295 315.485 553.051 316.987C554.828 318.468 556.986 319.632 559.525 320.479C562.086 321.304 564.974 321.716 568.19 321.716C569.65 321.716 571.099 321.611 572.538 321.399C573.977 321.187 575.363 320.902 576.696 320.542C578.05 320.161 579.351 319.717 580.6 319.209C581.848 318.68 583.012 318.109 584.091 317.495L588.725 325.112C586.016 326.847 582.885 328.212 579.33 329.207C575.775 330.18 571.999 330.667 567.999 330.667C562.9 330.667 558.425 330.011 554.574 328.699C550.723 327.366 547.507 325.546 544.926 323.24C542.344 320.912 540.398 318.183 539.086 315.051C537.795 311.899 537.15 308.513 537.15 304.895ZM616.749 280.393H627.414L651.408 330H640.839L636.872 321.653H607.895L604.054 330H593.454L616.749 280.393ZM632.904 313.369L622.177 290.835L611.735 313.369H632.904ZM659.12 280.393H684.352C688.161 280.393 691.461 280.795 694.254 281.599C697.047 282.382 699.364 283.525 701.205 285.027C703.046 286.529 704.411 288.359 705.299 290.518C706.209 292.676 706.664 295.12 706.664 297.849C706.664 299.69 706.442 301.446 705.998 303.118C705.553 304.768 704.866 306.292 703.935 307.688C703.025 309.084 701.872 310.333 700.475 311.433C699.079 312.512 697.439 313.411 695.556 314.131L706.347 330H694.032L684.701 315.908H684.416L669.181 315.876V330H659.12V280.393ZM684.606 307.18C686.51 307.18 688.171 306.958 689.589 306.514C691.028 306.069 692.223 305.445 693.175 304.641C694.149 303.837 694.868 302.864 695.333 301.721C695.82 300.557 696.063 299.267 696.063 297.849C696.063 295.077 695.111 292.94 693.207 291.438C691.303 289.915 688.436 289.153 684.606 289.153H669.181V307.18H684.606ZM718.598 280.393H736.784C742.095 280.393 746.707 280.964 750.622 282.107C754.536 283.25 757.773 284.889 760.333 287.026C762.915 289.142 764.83 291.724 766.078 294.771C767.348 297.796 767.982 301.203 767.982 304.99C767.982 308.587 767.358 311.92 766.11 314.988C764.861 318.035 762.957 320.68 760.397 322.922C757.837 325.144 754.599 326.89 750.685 328.159C746.771 329.408 742.158 330.032 736.847 330.032L718.598 330V280.393ZM739.259 321.304C742.264 321.304 744.898 320.923 747.162 320.161C749.426 319.378 751.309 318.278 752.811 316.86C754.335 315.443 755.478 313.729 756.239 311.719C757.001 309.709 757.382 307.466 757.382 304.99C757.382 302.557 757.001 300.367 756.239 298.42C755.478 296.453 754.335 294.792 752.811 293.437C751.309 292.062 749.426 291.004 747.162 290.264C744.898 289.523 742.264 289.153 739.259 289.153H728.659V321.304H739.259ZM780.392 315.242C782.191 316.257 784.01 317.178 785.851 318.003C787.713 318.807 789.638 319.495 791.627 320.066C793.616 320.616 795.7 321.039 797.88 321.335C800.08 321.632 802.418 321.78 804.894 321.78C807.877 321.78 810.416 321.589 812.511 321.208C814.606 320.806 816.309 320.267 817.621 319.59C818.954 318.892 819.917 318.066 820.509 317.114C821.123 316.162 821.43 315.125 821.43 314.004C821.43 312.205 820.679 310.788 819.176 309.751C817.674 308.693 815.357 308.164 812.226 308.164C810.85 308.164 809.401 308.259 807.877 308.45C806.354 308.619 804.809 308.809 803.244 309.021C801.699 309.233 800.165 309.434 798.642 309.624C797.139 309.793 795.722 309.878 794.389 309.878C792.167 309.878 790.03 309.592 787.978 309.021C785.946 308.45 784.137 307.593 782.55 306.45C780.985 305.308 779.736 303.879 778.805 302.166C777.874 300.452 777.409 298.452 777.409 296.167C777.409 294.813 777.589 293.469 777.948 292.136C778.329 290.803 778.922 289.534 779.726 288.328C780.551 287.1 781.609 285.968 782.899 284.932C784.19 283.874 785.745 282.964 787.565 282.202C789.406 281.44 791.522 280.848 793.913 280.425C796.325 279.98 799.065 279.758 802.133 279.758C804.354 279.758 806.587 279.885 808.83 280.139C811.072 280.372 813.252 280.71 815.368 281.155C817.505 281.599 819.557 282.139 821.525 282.773C823.493 283.387 825.323 284.075 827.016 284.836L822.604 292.961C821.207 292.348 819.705 291.787 818.097 291.279C816.489 290.75 814.807 290.295 813.051 289.915C811.295 289.534 809.475 289.237 807.592 289.026C805.73 288.793 803.825 288.677 801.879 288.677C799.107 288.677 796.822 288.878 795.023 289.28C793.246 289.682 791.828 290.2 790.77 290.835C789.713 291.449 788.972 292.147 788.549 292.93C788.147 293.691 787.946 294.453 787.946 295.215C787.946 296.696 788.612 297.913 789.945 298.865C791.278 299.796 793.31 300.261 796.039 300.261C797.139 300.261 798.398 300.187 799.816 300.039C801.255 299.87 802.757 299.69 804.323 299.5C805.91 299.309 807.518 299.14 809.147 298.992C810.797 298.822 812.395 298.738 813.939 298.738C816.859 298.738 819.441 299.066 821.684 299.722C823.948 300.378 825.841 301.319 827.365 302.546C828.888 303.752 830.041 305.223 830.824 306.958C831.607 308.672 831.998 310.597 831.998 312.734C831.998 315.591 831.332 318.14 829.999 320.383C828.687 322.605 826.804 324.488 824.35 326.033C821.916 327.556 818.975 328.72 815.526 329.524C812.077 330.307 808.237 330.698 804.005 330.698C801.212 330.698 798.483 330.518 795.817 330.159C793.151 329.82 790.591 329.333 788.136 328.699C785.703 328.043 783.375 327.271 781.154 326.382C778.953 325.472 776.911 324.478 775.028 323.398L780.392 315.242Z" fill="#FFFFFB"/>
</svg>
